<svg xmlns="http://www.w3.org/2000/svg" xmlns:xlink="http://www.w3.org/1999/xlink" width="20" height="20" version="1.1"><rect id="backgroundrect" width="100%" height="100%" x="0" y="0" fill="none" stroke="none"/>
    
    <title>javascript [#155]</title>
    <desc>Created with Sketch.</desc>
    <defs>

</defs>
    
<g class="currentLayer" style=""><title>Layer 1</title><g id="Page-1" stroke="none" stroke-width="1" fill="#ffffff" fill-rule="evenodd" class="selected" fill-opacity="1">
        <g id="Dribbble-Light-Preview" fill="#ffffff" fill-opacity="1">
            <g id="icons" fill="#ffffff" fill-opacity="1">
                <path d="M15.327999999999975,18.43199999999979 C13.583000000000027,18.43199999999979 12.454999999999984,17.600000000000364 11.904999999999973,16.511999999999716 L11.904999999999973,16.511999999999716 L13.435000000000002,15.626000000000204 C13.838000000000022,16.28399999999965 14.36099999999999,16.766999999999825 15.288000000000011,16.766999999999825 C16.065999999999974,16.766999999999825 16.562999999999988,16.3779999999997 16.562999999999988,15.84100000000035 C16.562999999999988,15.033000000000357 15.485000000000014,14.716999999999643 14.72399999999999,14.390999999999622 C13.367999999999995,13.814000000000306 12.468000000000018,13.088999999999942 12.468000000000018,11.557999999999993 C12.468000000000018,10.149000000000342 13.541999999999973,9.074999999999818 15.221000000000004,9.074999999999818 C16.41500000000002,9.074999999999818 17.274999999999977,9.490999999999985 17.891999999999996,10.57800000000043 L16.428999999999974,11.518000000000029 C16.107000000000028,10.940999999999804 15.757999999999981,10.712999999999738 15.221000000000004,10.712999999999738 C14.670000000000016,10.712999999999738 14.321000000000026,11.061999999999898 14.321000000000026,11.518000000000029 C14.321000000000026,12.082000000000335 14.670000000000016,12.3100000000004 15.475999999999999,12.65899999999965 C17.16500000000002,13.38299999999981 18.442999999999984,13.952000000000226 18.442999999999984,15.814000000000306 C18.442999999999984,17.506000000000313 17.113999999999976,18.43199999999979 15.327999999999975,18.43199999999979 L15.327999999999975,18.43199999999979 zM11,15.59900000000016 C11,17.546000000000276 9.800999999999988,18.574999999999818 8.136000000000024,18.574999999999818 C6.632000000000005,18.574999999999818 5.7309999999999945,18 5.288000000000011,17 L5.273000000000025,17 L5.2660000000000196,17 L5.2620000000000005,17 L6.790999999999997,15.930999999999585 C7.086000000000013,16.453999999999724 7.351999999999975,16.824999999999818 7.995999999999981,16.824999999999818 C8.613999999999976,16.824999999999818 9,16.511999999999716 9,15.57300000000032 L9,9 L11,9 L11,15.59900000000016 zM0,20 L20,20 L20,0 L0,0 L0,20 z" id="javascript-[#155]" fill="#ffffff" fill-opacity="1">

</path>
            </g>
        </g>
    </g></g></svg>